<svg width="195" height="32" viewBox="0 0 195 32" fill="none" xmlns="http://www.w3.org/2000/svg">
<path fill-rule="evenodd" clip-rule="evenodd" d="M25.5834 19.1454C27.1716 13.8766 24.838 8.25541 20.32 5.21444C15.8479 2.20329 9.71181 2.26833 5.25607 5.37706C0.648541 8.58606 -0.852974 14.2506 0.450685 19.5791C1.45079 23.6798 4.84138 26.8698 8.79843 28.1816C10.9597 28.8899 13.2638 29.0464 15.501 28.6369C16.0719 28.5331 16.6255 28.3896 17.1717 28.248C18.7494 27.839 20.2666 27.4457 21.9678 28.0678C22.125 28.1204 22.2821 28.1753 22.4399 28.2305L22.4401 28.2305L22.4401 28.2306L22.4402 28.2306C22.8266 28.3656 23.217 28.5021 23.6211 28.6098C26.448 29.3606 26.6268 29.2413 25.7135 26.4172C24.8865 24.0708 24.8409 21.5199 25.5834 19.1454ZM22.9652 20.6876C22.8586 20.9404 22.776 21.2026 22.7186 21.4709C22.5185 22.4761 22.8699 23.5984 23.1738 24.569C23.2034 24.6635 23.2325 24.7566 23.2606 24.8479C23.6889 26.2031 23.1387 26.4741 21.9461 26.2275C21.6112 26.1579 21.307 26.0847 21.0219 26.0161C19.775 25.7161 18.8918 25.5036 17.3874 26.0594C15.9225 26.6453 14.3575 26.9399 12.7799 26.9267C9.64134 26.8454 6.50009 25.4848 4.45381 23.07C1.33695 19.3894 1.04153 13.6001 3.7681 9.62411C6.04476 6.30127 10.1211 4.61004 14.0862 4.91631C18.4227 5.25509 22.2497 8.48307 23.6103 12.6136C24.2537 14.5848 24.3111 16.7004 23.7756 18.7036C23.6668 19.1531 23.4665 19.5825 23.2658 20.0129C23.1614 20.2366 23.057 20.4605 22.9652 20.6876ZM112.156 3.4094C110.197 3.36603 109.988 4.25502 109.95 5.84868C109.904 7.63748 110.492 8.38011 112.305 8.01692C114.154 8.39908 114.633 7.55346 114.661 5.82157C114.698 3.92436 113.961 3.45005 112.156 3.4094ZM67.3385 10.3532C64.6824 10.2746 62.6063 11.4021 60.5303 13.7167C60.5303 12.7256 60.5227 11.7884 60.5154 10.8886V10.8879V10.8873V10.8866C60.4992 8.89099 60.4845 7.07926 60.5573 5.27139C60.6251 3.55305 59.6711 3.4338 58.3566 3.45548L58.1942 3.45787C56.9498 3.4751 55.9043 3.48956 55.9173 5.28223C55.9733 12.4754 55.9733 19.6695 55.9173 26.8644C55.9173 28.5115 56.8673 28.5119 57.9145 28.5124C58.0339 28.5125 58.1546 28.5125 58.2753 28.515L58.349 28.5162C59.5549 28.5354 60.6182 28.5524 60.5465 26.7912C60.4865 25.252 60.5003 23.7107 60.5142 22.1686V22.1684V22.1682V22.1681V22.1679V22.1677V22.1676V22.1674V22.1672V22.167V22.1669V22.1667V22.1665V22.1664V22.1662C60.5228 21.2028 60.5315 20.2392 60.5221 19.2756C60.4977 17.0802 61.636 15.6356 63.5035 14.7087C65.6121 13.6652 67.4144 14.4621 68.0297 16.6981C68.2117 17.4447 68.2964 18.2118 68.2817 18.9801C68.3143 21.6769 68.3332 24.3764 68.2817 27.0731C68.26 28.534 69.2168 28.5611 70.2359 28.4987C70.4322 28.4867 70.6427 28.4946 70.8548 28.5026C71.7437 28.536 72.6589 28.5703 72.6589 27.1436C72.6589 26.2796 72.6627 25.4153 72.6666 24.5509V24.5506V24.5504V24.5501V24.5499V24.5497V24.5494V24.5492V24.5489V24.5487V24.5485V24.5482V24.548V24.5477V24.5476V24.5474V24.5473V24.5472V24.547V24.5469V24.5467V24.5466V24.5464V24.5463V24.5462V24.546V24.5459C72.6807 21.3633 72.6948 18.1797 72.5179 15.0095C72.3743 12.058 70.2901 10.4372 67.3385 10.3532ZM138.354 10.9847C137.387 11.3683 136.534 11.9935 135.877 12.8006C135.107 13.8034 134.695 13.5893 134.123 12.5946C133.21 11.0145 131.722 10.3912 129.876 10.3424C127.166 10.2665 124.998 11.3316 123.1 13.4836C123.05 13.3209 123.006 13.2027 122.973 13.1121C122.92 12.9703 122.893 12.8961 122.903 12.825C123.114 11.104 122.301 10.6568 120.645 10.6703C118.888 10.7023 118.891 11.7174 118.894 12.9041L118.894 12.9687C118.898 13.9557 118.904 14.9427 118.909 15.9297C118.931 19.439 118.952 22.9479 118.867 26.4552C118.821 28.2982 119.696 28.5123 121.233 28.5448C122.897 28.5828 123.358 27.9296 123.306 26.3766C123.22 23.8099 123.212 21.227 123.325 18.6711C123.428 16.3674 125.654 14.2398 127.716 14.2533C129.613 14.2533 130.622 15.7684 130.643 18.6847C130.648 19.2838 130.655 19.8833 130.663 20.4828V20.4837V20.4846V20.4854V20.4863V20.4872V20.4881V20.4889V20.4898V20.4907V20.4916V20.4924V20.4933V20.4942C130.688 22.5243 130.713 24.5559 130.619 26.5825C130.538 28.3795 131.486 28.5313 132.901 28.5177C134.256 28.5177 135.34 28.4743 135.253 26.6367C135.167 24.4787 135.201 22.3053 135.235 20.1472C135.241 19.7413 135.248 19.3359 135.253 18.9313C135.275 16.8552 136.308 15.4079 138.197 14.5596C139.961 13.779 141.669 14.5596 142.173 16.3918C142.328 17.1493 142.385 17.9235 142.344 18.6955C142.371 21.4546 142.395 24.2192 142.344 26.9782C142.319 28.3605 143.127 28.6559 144.214 28.4771C144.484 28.4333 144.808 28.4705 145.136 28.5081C146.007 28.6081 146.908 28.7116 146.924 27.3116C146.94 26.3921 146.97 25.4712 147.001 24.5499C147.103 21.4871 147.205 18.4199 146.759 15.3863C146.108 10.8085 142.658 9.11731 138.354 10.9847ZM48.4423 22.3219C49.4586 21.1538 50.5942 21.2703 52.3072 22.7339C53.3243 23.6019 52.68 24.2397 52.1349 24.7792L52.1349 24.7792L52.1346 24.7795C52.0161 24.8968 51.9022 25.0096 51.8112 25.119C48.3095 29.4094 40.9401 29.9677 36.3841 26.1326C32.5517 22.9074 30.9987 18.6576 32.0476 13.6923C33.0423 8.96553 35.8258 5.73755 40.6311 4.44744C41.2612 4.27744 41.9228 4.22334 42.585 4.1692C42.8941 4.14392 43.2033 4.11864 43.5095 4.08155C46.8405 4.07884 49.6131 5.23343 51.719 7.80551C52.2963 8.51019 52.9603 9.40189 51.6675 9.99544C51.3907 10.1219 51.1364 10.3589 50.8798 10.5981C50.2018 11.2299 49.508 11.8765 48.342 10.5375C45.0435 6.74307 39.6554 7.53177 37.4547 12.039C35.8583 15.3022 36.0317 18.5302 37.9967 21.5793C40.4604 25.3981 45.488 25.7152 48.4423 22.3219ZM172.271 25.4008C170.13 25.4352 167.988 25.4352 165.845 25.4008C165.704 25.4008 165.548 25.4205 165.389 25.4406C164.875 25.5056 164.325 25.5752 164.118 24.9997C163.97 24.5866 164.321 24.2536 164.662 23.9316L164.662 23.9314C164.781 23.8183 164.899 23.7065 164.994 23.5931C165.52 22.9647 166.045 22.3356 166.571 21.7064L166.572 21.7047L166.576 21.7006C168.612 19.2627 170.649 16.8241 172.729 14.4214C173.542 13.4755 173.74 12.4374 173.363 11.3804C173.07 10.5593 172.359 10.6344 171.69 10.7051C171.498 10.7254 171.309 10.7453 171.135 10.7435C169.152 10.7205 167.167 10.7235 165.183 10.7266C163.661 10.7289 162.14 10.7312 160.619 10.7218C159.41 10.7218 159.064 11.2639 159.069 12.3805C159.074 13.4972 159.573 13.8495 160.614 13.8387C162.041 13.8206 163.468 13.8266 164.896 13.8326C165.611 13.8356 166.325 13.8387 167.04 13.8387C167.099 13.8387 167.161 13.8361 167.224 13.8334C167.553 13.8197 167.911 13.8046 168.083 14.1503C168.257 14.4968 168.018 14.7589 167.796 15.0027C167.754 15.0488 167.712 15.0943 167.674 15.1396C167.199 15.7168 166.713 16.2877 166.228 16.8583L166.225 16.8614L166.223 16.8637L166.222 16.8652L166.221 16.8662L166.221 16.8669L166.22 16.8675L166.219 16.8682L166.219 16.8688C165.996 17.1307 165.774 17.3925 165.552 17.6548C164.922 18.4004 164.294 19.1483 163.666 19.8967L163.666 19.8971L163.665 19.8978L163.664 19.899L163.663 19.901L163.659 19.905L163.658 19.907L163.657 19.9081C162.256 21.5772 160.853 23.2487 159.419 24.9021C158.605 25.8453 158.432 26.924 158.876 27.9512C159.184 28.6779 159.879 28.6039 160.541 28.5335C160.753 28.5109 160.962 28.4887 161.153 28.4933C162.353 28.5357 163.555 28.5274 164.757 28.519C165.243 28.5157 165.73 28.5123 166.216 28.5123C166.887 28.5123 167.559 28.5084 168.23 28.5044C169.572 28.4966 170.914 28.4888 172.255 28.5123C173.466 28.5421 173.832 27.9702 173.821 26.8644C173.81 25.7586 173.331 25.3846 172.271 25.4008ZM102.247 22.1295C102.283 24.2977 102.966 25.016 105.134 24.5254C106.648 24.1833 106.843 24.9454 107.061 25.7976C107.099 25.9445 107.137 26.094 107.183 26.241C107.581 27.4851 106.95 27.9946 105.828 28.2656C105.607 28.3197 105.386 28.378 105.166 28.4362C104.325 28.6581 103.481 28.8809 102.597 28.8809C99.4394 28.8999 97.8864 27.4634 97.8376 24.3709C97.8063 22.4251 97.8117 20.478 97.8172 18.5314V18.5311V18.5308V18.5305V18.5303V18.53V18.5297V18.5294V18.5291V18.5289V18.5286C97.8193 17.7809 97.8214 17.0334 97.8214 16.2861L97.8218 16.17C97.8265 15.1542 97.831 14.186 96.374 14.0555C95.5203 13.9796 95.458 13.2614 95.4851 12.5919C95.4899 12.4727 95.4866 12.3436 95.4831 12.2113C95.4673 11.6008 95.4498 10.923 96.225 10.8384C97.8406 10.6602 97.8307 9.64147 97.8203 8.57094C97.8195 8.48494 97.8186 8.39861 97.8186 8.31235C97.842 7.86093 97.842 7.40861 97.8186 6.95719C97.6831 5.37437 98.3607 4.6453 99.9869 4.91633C101.673 4.62903 102.415 5.32829 102.231 7.02766C102.208 7.31075 102.22 7.59717 102.232 7.88395C102.244 8.17648 102.256 8.4694 102.231 8.75955C102.112 10.1147 102.594 10.8519 104.082 10.7137C105.345 10.5944 106.158 10.8736 106.158 12.4483C106.158 14.0989 105.202 14.1964 104.014 14.1232C102.646 14.0365 102.188 14.6816 102.226 15.969C102.259 17.114 102.252 18.26 102.244 19.4063V19.4071C102.239 20.3144 102.233 21.222 102.247 22.1295ZM114.62 12.3724C114.64 10.6972 113.638 10.7012 112.547 10.7055C112.455 10.7058 112.362 10.7062 112.27 10.7055L112.131 10.7044C110.988 10.6937 109.91 10.6837 109.98 12.4158C110.045 14.049 110.031 15.6862 110.016 17.3228V17.3229V17.3231V17.3233V17.3234V17.3236V17.3237V17.3239V17.3241V17.3242V17.3245V17.3248V17.3252V17.3255V17.3258V17.3261V17.3264V17.3267V17.327C110.01 18.0653 110.003 18.8035 110.004 19.5412C110.004 20.2729 110.01 21.0047 110.016 21.7365V21.737C110.03 23.4443 110.043 25.1517 109.983 26.859C109.922 28.5089 110.886 28.5101 111.926 28.5114C112.055 28.5115 112.184 28.5117 112.313 28.515L112.421 28.517C113.6 28.5395 114.649 28.5595 114.623 26.8156C114.558 22.0021 114.557 17.1877 114.62 12.3724ZM153.418 10.692C154.724 10.6893 155.654 10.7923 155.624 12.5025C155.536 17.2437 155.536 21.9849 155.624 26.7262C155.654 28.4499 154.719 28.5312 153.418 28.5285C152.117 28.5258 151.12 28.4337 151.177 26.7289C151.235 25.0284 151.222 23.3213 151.209 21.6122V21.6112C151.204 20.8825 151.198 20.1536 151.198 19.4246C151.198 18.7258 151.204 18.0277 151.21 17.3301L151.21 17.3261C151.223 15.7173 151.236 14.1112 151.179 12.5052C151.12 10.8085 152.112 10.6947 153.418 10.692ZM151.147 5.60473C151.079 3.87555 151.808 3.45546 153.434 3.42293C155.323 3.38499 155.895 4.13845 155.529 5.79716C155.952 7.73504 154.963 8.0413 153.288 8.10635C151.249 8.18486 151.206 7.10601 151.147 5.60989L151.147 5.60473ZM183.478 21.0833C185.1 21.0012 186.717 21.01 188.334 21.0189C190.396 21.0302 192.457 21.0416 194.525 20.8638C194.57 20.8711 194.616 20.8684 194.659 20.8557C194.703 20.8431 194.743 20.8209 194.776 20.7907C194.81 20.7606 194.837 20.7233 194.854 20.6815C194.872 20.6398 194.88 20.5946 194.878 20.5494C195.962 13.5487 188.438 8.97908 182.334 10.7625C177.345 12.2233 174.626 17.5084 176.301 22.6174C177.453 26.1245 180.003 28.1708 183.619 28.7427C187.142 29.2847 190.324 28.4716 192.793 25.7207C193.428 25.0133 193.861 24.2842 192.474 23.9183C192.338 23.8827 192.204 23.8451 192.072 23.808C190.96 23.495 189.964 23.2146 188.804 24.4116C187.039 26.2329 184.063 26.0134 182.275 24.333C181.462 23.5795 180.518 22.6445 180.993 21.5332C181.278 20.857 181.999 20.9446 182.7 21.0299C182.971 21.0628 183.239 21.0954 183.478 21.0833ZM180.892 16.5815C181.246 15.7134 181.838 14.9632 182.6 14.4178C183.362 13.8724 184.263 13.5541 185.199 13.4999C187.072 13.4538 188.993 14.6626 189.693 16.3023C190.164 17.4109 190.145 18.167 188.609 18.0884C187.886 18.0505 187.151 18.0631 186.416 18.0758C186.049 18.0821 185.681 18.0884 185.316 18.0884C184.95 18.0884 184.584 18.086 184.217 18.0836C183.485 18.0788 182.753 18.074 182.023 18.0884C180.928 18.1101 180.461 17.7334 180.892 16.5815ZM92.4739 18.5844V22.2406C92.4739 23.1323 92.5037 23.94 93.2165 24.7206C94.073 25.6638 93.8155 28.0868 93.0024 28.553C91.8126 29.2441 89.5847 28.6939 89.002 27.2628C88.4586 25.9284 88.0543 26.2602 87.3254 26.8582C87.2726 26.9015 87.2181 26.9462 87.1617 26.9918C84.9664 28.7644 82.4593 29.3769 79.7057 28.4933C77.3612 27.7399 75.8462 25.8183 75.7351 23.5497C75.6239 21.2812 76.9411 19.3 79.272 18.2999C81.4431 17.3925 83.8495 17.2118 86.1318 17.7849C87.9829 18.1996 87.9721 17.2428 87.7417 16.0313C87.4355 14.4187 86.2754 13.6815 84.7252 13.4891C82.8426 13.2503 80.9355 13.6718 79.3289 14.6816C78.4914 15.1884 77.9304 15.183 77.513 14.1964C77.4672 14.0877 77.4172 13.9801 77.3678 13.8737L77.3676 13.8733L77.3675 13.873C77.04 13.1678 76.7374 12.5161 77.8274 11.9604C79.8141 10.9441 81.882 10.2746 84.1506 10.3586C89.8178 10.3424 92.4739 12.9578 92.4739 18.5844ZM80.0743 23.2922C80.3426 24.8534 82.0474 25.8372 83.9744 25.5662C86.4706 25.203 87.9667 23.7882 87.8312 21.8639C87.7216 20.1431 86.6274 20.1285 85.6932 20.1161C85.3796 20.1119 85.0841 20.108 84.8498 20.0399C84.2783 20.0097 83.7057 20.0097 83.1342 20.0399C81.1367 20.3109 79.8059 21.7311 80.0743 23.2922ZM11.5224 16.2427C11.4682 15.3022 12.0238 14.7087 13.0077 14.603C14.0132 14.6436 14.5959 15.1179 14.5878 16.137C14.5878 17.0179 14.1921 17.625 13.2326 17.6683C12.2732 17.7117 11.5766 17.1832 11.5224 16.2427ZM7.81201 14.6192C6.90947 14.6653 6.3918 15.2047 6.39451 16.1018C6.39451 17.0775 6.93658 17.6656 7.93939 17.6575C8.94221 17.6494 9.41921 17.0368 9.49239 16.0747C9.35146 15.1098 8.80398 14.5704 7.81201 14.6192ZM16.5853 15.9934C16.6612 15.099 17.2683 14.6138 18.1735 14.6707C19.0923 14.7276 19.5043 15.332 19.591 16.1207C19.4555 17.0775 18.973 17.6412 18.057 17.6195C17.046 17.5952 16.504 16.9772 16.5853 15.9934Z" fill="#080F1A"/>
</svg>
