<svg width="108" height="32" viewBox="0 0 108 32" fill="none" xmlns="http://www.w3.org/2000/svg">
<path fill-rule="evenodd" clip-rule="evenodd" d="M13.2534 4.57548H10.8244V5.0386C10.7374 5.78998 10.6212 10.6801 10.6212 12.9654V15.2517H11.3452C11.7204 15.2517 12.502 15.2224 13.0521 15.1931C13.862 15.1354 14.122 15.1071 14.4698 14.9332C15.3374 14.5277 15.9158 13.6601 16.2636 12.2424L16.4366 11.5184L17.0736 11.4901L17.7097 11.4608V20.7193L17.0736 20.69L16.4366 20.6616L16.2636 19.9386C15.9442 18.5493 15.3081 17.5663 14.4981 17.2185C14.122 17.0456 13.225 16.9586 11.4605 16.9L10.6212 16.8716V18.6079C10.6212 20.4887 10.7081 23.0632 10.8527 24.4516C11.0257 26.391 11.5181 27.4609 12.415 27.8371C12.5889 27.8947 13.1097 28.011 13.6012 28.0979C14.0936 28.1839 14.5274 28.2718 14.6144 28.3002C14.7873 28.3871 14.7873 29.4003 14.6144 29.457C14.4688 29.5156 0.900506 29.5156 0.754956 29.457C0.697303 29.4287 0.668946 29.2255 0.668946 28.8786C0.668946 28.6292 0.659937 28.4819 0.724023 28.3812C0.823377 28.2249 1.09842 28.1805 1.85509 28.0403C2.80967 27.8664 3.15653 27.6925 3.56199 27.1424C4.37197 26.1009 4.54493 24.0471 4.54493 15.6279C4.54493 7.72939 4.40127 6.05083 3.56199 4.83539C3.18583 4.31557 2.54881 3.99706 1.50728 3.88081L0.697302 3.79386L0.668001 3.15779L0.639648 2.52077L0.900506 2.46217C1.04511 2.43382 5.93428 2.43382 11.779 2.43476L22.3966 2.46312L22.4552 2.78162C22.4552 2.82248 22.4598 2.99041 22.467 3.25471C22.4854 3.92579 22.5208 5.21817 22.5412 6.62926L22.5998 10.1886L22.0497 10.3616C21.2397 10.6215 21.2397 10.6215 20.8636 9.63855C19.9373 7.20767 18.8958 5.81928 17.4781 5.12461C16.4952 4.63314 16.0321 4.57548 13.2534 4.57548ZM102.858 17.6816C105.346 18.7232 106.561 19.5917 107.199 20.8932C107.603 21.7325 107.719 22.3978 107.749 23.7286C107.719 24.7125 107.69 24.8864 107.458 25.5517C106.735 27.6632 105.115 29.0525 102.599 29.7179C101.769 29.9468 101.618 29.9494 99.9933 29.9777L99.9361 29.9787C98.9522 30.0071 98.027 30.0071 97.8531 29.9787C96.493 29.8332 94.2946 29.3701 93.5716 29.0525L93.2238 28.9079L93.1661 27.1424C93.1368 26.1878 93.1076 24.8864 93.1076 24.2786L93.0792 23.1502L93.2824 23.0339C93.3977 22.9763 93.6293 22.9177 93.8022 22.9177L94.1207 22.8893L94.3816 23.5547C95.4222 26.1009 96.6376 27.4902 98.2292 27.8947C98.8369 28.0393 99.9654 28.0393 100.429 27.8947C101.672 27.4609 102.367 26.5063 102.367 25.2039C102.395 23.6709 101.528 22.9186 98.3455 21.6748C96.3484 20.8932 95.6547 20.4887 94.8447 19.6494C93.9468 18.7232 93.5423 17.71 93.4554 16.2639C93.34 14.5277 93.8892 13.0524 95.1046 11.8086C96.3191 10.5355 97.9107 9.87011 100.052 9.66785C101.932 9.49395 104.826 9.89847 106.359 10.5355L106.649 10.6508L106.706 12.2131C106.736 13.0817 106.765 14.2385 106.765 14.7886V15.8008L106.389 15.9454C105.81 16.1779 105.752 16.1486 105.434 15.28C104.508 12.8501 103.437 11.6923 101.788 11.3455C100.775 11.1139 99.9078 11.3455 99.3 12.0108C98.8076 12.5316 98.6347 12.9947 98.5761 13.747C98.5184 14.557 98.664 15.0201 99.1838 15.5693C99.7915 16.2356 100.833 16.8423 102.858 17.6816ZM80.0307 10.5355C82.403 9.37864 85.6731 9.29264 87.7846 10.3616C90.1568 11.577 91.5745 13.9493 91.9224 17.3348C91.9791 17.8262 91.9791 18.3761 91.9791 18.5785V18.5786L91.9507 18.9557L86.2506 18.984L80.5515 19.0124L80.5808 19.6777C80.6384 21.24 80.9853 22.6294 81.593 23.8146C81.8539 24.3656 82.0845 24.6548 82.6346 25.2039C83.8783 26.4487 85.0947 26.9401 87.0322 26.9401C88.4499 26.9401 89.4631 26.6802 90.5047 25.9855C90.7939 25.7833 91.1114 25.6377 91.17 25.6377C91.3146 25.6377 91.6908 26.1302 91.6908 26.3324C91.6908 26.6802 90.5907 27.7794 89.5208 28.5024C88.6238 29.1102 87.2345 29.6602 86.02 29.8625C85.1807 30.0071 83.2716 30.0071 82.4323 29.8625C78.613 29.1678 75.8939 26.477 74.996 22.4848C74.8807 21.964 74.823 21.3846 74.7947 20.2864C74.7361 18.5209 74.8807 17.451 75.3428 16.09C76.2124 13.4862 77.7737 11.6347 80.0307 10.5355ZM80.6101 17.4208L82.0552 17.3924C82.8368 17.3631 84.1099 17.3338 84.8622 17.3338L86.193 17.2771L86.1363 16.3225C85.9624 12.9654 85.1514 11.1432 83.8207 11.1432C82.3746 11.1432 81.2169 12.9947 80.7254 16.09C80.6668 16.4662 80.6101 16.9293 80.6101 17.1032V17.4208ZM65.4199 9.92776C66.2876 9.89846 66.693 9.92776 67.1561 10.0147C70.1068 10.6224 72.3061 13.0524 73.0575 16.5531C73.2598 17.4794 73.3477 19.7647 73.2031 20.8932C73.0868 21.8478 72.7683 23.1785 72.4215 24.0178C71.1484 27.2293 68.4283 29.3124 64.8122 29.8625C63.9739 29.9778 61.3691 30.0071 60.2406 29.8908C59.4883 29.8048 57.1453 29.3994 56.3353 29.2255L55.7852 29.1102L55.8438 26.1009C55.9591 18.8678 55.9592 14.9039 55.9006 11.0563C55.8429 7.29463 55.8145 6.89011 55.669 6.34004C55.4667 5.64537 55.2068 5.1539 54.8883 4.92235C54.773 4.8354 54.4252 4.69079 54.136 4.63314C53.5375 4.50632 53.3369 4.47054 53.2633 4.35433C53.2195 4.28519 53.2207 4.18759 53.2098 4.02542C53.2098 3.79386 53.24 3.6209 53.2967 3.5623C53.3837 3.50465 61.2245 2 61.4853 2C61.5713 2 61.5713 2.98388 61.543 6.4563C61.5146 8.91553 61.5146 10.9116 61.543 10.9116C61.5607 10.9116 61.6802 10.8554 61.8448 10.7779C61.944 10.7312 62.0596 10.6768 62.1791 10.6224C63.1922 10.1593 64.0892 9.98542 65.4199 9.92776ZM61.4844 15.28C61.4551 18.8678 61.5704 27.8947 61.6573 28.1556C61.7443 28.3285 61.802 28.3578 62.0912 28.4155C62.8435 28.4731 62.9588 28.4731 63.3652 28.3871C63.9143 28.2709 64.3481 28.0393 64.8113 27.6348C65.9974 26.5933 66.865 24.4232 67.2119 21.7325C67.3574 20.6333 67.3281 18.1447 67.1835 17.2185C66.7497 14.7593 65.8528 13.1393 64.522 12.4739L64.5168 12.4714C63.9716 12.2129 63.9122 12.1847 63.249 12.1847C62.8394 12.1829 62.4312 12.2315 62.0335 12.3293L61.5127 12.473L61.4844 15.28ZM52.4867 9.5809C51.5898 9.5809 51.0974 9.66785 50.3744 10.0147C49.0436 10.6224 48.0597 11.6063 47.1921 13.197L46.9029 13.6884L46.9312 12.7925C46.9497 12.4824 46.9682 12.0106 46.9865 11.5448V11.5446C46.9971 11.2722 47.0077 11.0018 47.0182 10.767L47.0475 9.63855H46.8452C46.6137 9.63855 38.9751 11.1716 38.7436 11.2585C38.599 11.3162 38.5706 11.3748 38.5706 11.75C38.5706 12.1271 38.599 12.1847 38.7436 12.2131C38.8296 12.2421 39.1712 12.2989 39.5145 12.3559L39.5145 12.3559L39.5252 12.3577C40.1906 12.4739 40.3928 12.5893 40.682 12.9654C41.2028 13.6308 41.2898 14.8462 41.2898 19.9093C41.2898 24.0471 41.2028 26.1302 41.0005 26.7662C40.769 27.5479 40.3352 27.9524 39.5829 28.0979C39.4057 28.1413 39.1777 28.1858 39.0156 28.2174L39.0155 28.2174L39.0151 28.2175C38.9655 28.2272 38.9221 28.2357 38.8882 28.2425L38.6283 28.2992L38.5999 28.8209C38.5706 29.1971 38.5999 29.3701 38.6859 29.4287C38.7436 29.457 41.3474 29.4854 44.473 29.4854L50.1721 29.457L50.2005 28.8493C50.2005 28.5317 50.2005 28.2425 50.1721 28.2425C49.7383 28.2425 48.3782 28.0686 48.1467 27.9524C47.5106 27.6925 47.1921 27.114 47.0475 25.9279C46.9029 24.5669 46.7876 21.1247 46.8452 18.3479C46.9029 15.5125 46.9029 15.5125 47.0768 15.3093C47.4813 14.8746 48.5229 14.5277 49.4774 14.5277C50.2298 14.5277 51.0114 14.7309 51.8214 15.1071C52.2268 15.3093 52.5737 15.4247 52.6313 15.4247C52.7476 15.3963 54.5991 10.4485 54.5991 10.217C54.5991 9.92777 53.5283 9.5809 52.4867 9.5809ZM38.599 18.174C38.1945 14.7593 36.7475 12.2717 34.3459 10.854C31.6844 9.29168 27.6629 9.20473 24.7982 10.6508C22.7151 11.6923 21.0365 13.6894 20.2852 16.004C19.5035 18.3763 19.5035 21.5009 20.2852 23.9025C20.7766 25.4648 21.442 26.5933 22.4835 27.6055C23.7283 28.8493 25.3473 29.6309 27.2281 29.8908C27.8944 29.9778 30.0068 29.9778 30.7005 29.8908C31.019 29.8341 31.5984 29.7179 31.9443 29.6309C35.3298 28.648 37.6444 26.0432 38.426 22.3402C38.6283 21.4139 38.7152 19.2156 38.599 18.174ZM30.0351 28.4155C27.9228 29.0525 26.4191 27.0261 25.8397 22.8316C25.6374 21.4716 25.6667 17.7686 25.8397 16.2346C26.2452 12.8501 27.2858 11.1432 28.936 11.1432C29.6883 11.1432 30.0928 11.3162 30.6722 11.8955C32.0606 13.2849 32.6966 15.9454 32.6966 20.1125C32.6966 23.4394 32.3498 25.5224 31.6267 26.9401C31.2506 27.6055 30.5852 28.2425 30.0351 28.4155Z" fill="#080F1A"/>
</svg>
