<svg width="161" height="32" viewBox="0 0 161 32" fill="none" xmlns="http://www.w3.org/2000/svg">
<path d="M24.8032 27.8534H25.9879C26.0843 28.7742 26.1309 29.6995 26.1275 30.6253C26.1275 30.7107 26.1275 30.796 26.1275 30.8769V31.0296H24.9518V30.8589C24.9518 30.7915 24.9518 30.7196 24.9518 30.6478C24.9554 29.7143 24.9057 28.7813 24.8032 27.8534ZM18.1271 11.8736L21.5868 7.98315V3.2885H25.7582L28.6772 0H20.7218L14.8657 9.19612C13.8345 8.47986 12.752 7.8402 11.6268 7.28232L14.9738 0H7.91484L6.61297 5.39099C4.45345 4.83256 2.23092 4.55323 0 4.55988L0 5.73242C2.13896 5.73107 4.2692 6.00436 6.33818 6.54556L0.211723 32L11.1222 8.34704C12.198 8.88491 13.2337 9.49895 14.2215 10.1845L0.310828 31.9416L17.3523 12.7542C19.0036 14.3503 20.4283 16.1641 21.5868 18.1452V15.9483C20.5756 14.4762 19.4164 13.1109 18.1271 11.8736ZM35.6596 13.428H29.3034V10.5259H37.1056L36.6552 4.43858H22.7445V26.6944H29.2493V19.5064H35.6596V13.428ZM29.3034 10.5259H37.1056L36.6552 4.43858H22.7445V26.6944H29.2493V19.5064H35.6596V13.428H29.3034V10.5259ZM76.4051 4.49249H69.247L66.5442 9.11975L63.7918 4.49249H56.6157L63.0305 15.2116L56.3769 26.6629H63.4179L66.6162 21.1911L69.8957 26.6674H77.1033L70.184 15.1217L76.4051 4.49249ZM59.6429 15.7237C59.5804 18.6506 58.3915 21.4413 56.3224 23.5179C54.2533 25.5945 51.4625 26.7979 48.5281 26.8787C45.5938 26.9595 42.7406 25.9117 40.5597 23.9522C38.3788 21.9926 37.0372 19.2716 36.8128 16.3527C36.8128 16.1325 36.7813 15.9034 36.7813 15.6923C36.7813 15.4811 36.7813 15.243 36.8128 15.0319C36.8822 13.8836 37.1299 12.753 37.5471 11.6805C37.7416 11.1773 37.9735 10.6892 38.2408 10.2204C39.4876 8.05007 41.4138 6.34755 43.7241 5.37398C46.0344 4.40042 48.6012 4.20957 51.0307 4.83073C53.4602 5.45188 55.6183 6.85072 57.174 8.8127C58.7296 10.7747 59.5969 13.1914 59.6429 15.6923V15.7237ZM50.237 10.782C50.2199 10.2429 49.9966 9.73086 49.613 9.35077C49.2293 8.97068 48.7144 8.75139 48.1738 8.73789C47.6412 8.75424 47.1359 8.9768 46.7651 9.35838C46.3942 9.73996 46.1869 10.2506 46.1872 10.782V20.2162C46.2079 20.7309 46.4267 21.2179 46.798 21.5761C47.1693 21.9342 47.6646 22.1359 48.1812 22.1394C48.6977 22.1429 49.1957 21.9478 49.5719 21.5947C49.948 21.2416 50.1733 20.7576 50.2009 20.2432L50.237 10.782ZM108.731 17.6824H116.029V12.8575H108.731V9.57799H117.61V4.3667H103.105V26.6854H117.718V21.4741H108.731V17.6824ZM140.098 4.3667L137.309 17.2601L134.575 4.3667H129.737L127.142 17.3949L124.439 4.3667H118.705L123.917 26.6854H129.16L131.728 13.9806L134.377 26.6854H139.508L144.747 4.3667H140.098ZM159.135 14.5422C157.635 13.1585 155.882 12.8036 153.99 12.26C151.711 11.6131 150.463 11.5502 150.463 10.2339C150.463 9.36235 151.27 8.62558 152.436 8.62558C154.022 8.62558 154.963 9.268 155.549 10.8718L160.468 9.23206C159.247 5.59764 156.608 3.63442 152.81 3.63442C147.666 3.63442 144.526 6.77917 144.526 11.0336C144.526 14.6994 146.639 16.5009 151.004 17.7723C153.562 18.545 154.923 18.4821 154.923 20.1219C154.923 20.9889 154.117 21.6628 152.756 21.6628C150.67 21.6628 149.477 20.7328 149.058 18.864L143.652 20.0545C144.553 24.3673 147.769 26.8741 152.661 26.8741C153.86 26.9128 155.053 26.7 156.163 26.2496C157.274 25.7992 158.277 25.1212 159.108 24.2594C160.339 22.9081 161.015 21.1436 161 19.3177C161 17.3096 160.369 15.6653 159.135 14.5422ZM96.0998 15.6698L89.3697 4.43858H82.8874L82.8288 26.6494H88.5634V13.7919L96.244 26.6719H101.65V4.46104H96.0818L96.0998 15.6698Z" fill="#080F1A"/>
</svg>
