<svg width="113" height="32" viewBox="0 0 113 32" fill="none" xmlns="http://www.w3.org/2000/svg">
<path fill-rule="evenodd" clip-rule="evenodd" d="M95.6308 6.62162V10.3765C97.2919 10.6292 98.8358 11.3841 100.055 12.5399C101.275 13.6957 102.111 15.197 102.453 16.8421C102.794 18.4874 102.624 20.1979 101.965 21.7436C101.306 23.2892 100.189 24.596 98.7649 25.4881C97.3408 26.3801 95.6777 26.8148 93.9993 26.7335C92.3209 26.6523 90.7076 26.059 89.3764 25.0335L86.3243 28.0865C86.4037 28.3357 86.446 28.5952 86.4498 28.8566C86.4496 29.3859 86.2925 29.9033 85.9984 30.3433C85.7042 30.7833 85.2862 31.1262 84.7972 31.3287C84.3082 31.5312 83.7701 31.5842 83.251 31.481C82.7319 31.3777 82.2551 31.1229 81.8808 30.7487C81.5064 30.3745 81.2515 29.8978 81.1481 29.3787C81.0446 28.8596 81.0974 28.3215 81.2998 27.8325C81.5021 27.3434 81.8449 26.9253 82.2848 26.631C82.7247 26.3367 83.242 26.1794 83.7713 26.1791C84.0331 26.1828 84.2929 26.2251 84.5424 26.3045L87.6276 23.2202C86.6793 21.8687 86.1601 20.2629 86.1377 18.6121C86.1153 16.9613 86.5908 15.342 87.5022 13.9653L77.3591 6.07374C76.8716 6.35703 76.3181 6.50717 75.7542 6.50909C75.11 6.50848 74.4804 6.31676 73.9451 5.95817C73.4099 5.59959 72.993 5.09027 72.7474 4.49468C72.5645 4.04961 72.4825 3.56955 72.5073 3.089C72.5321 2.60846 72.663 2.13938 72.8908 1.7155C73.1185 1.29161 73.4373 0.923454 73.8243 0.637496C74.2113 0.351539 74.6568 0.154887 75.1289 0.0616817C75.601 -0.0315236 76.0878 -0.0189663 76.5545 0.0984503C77.0211 0.215867 77.4559 0.435225 77.8277 0.740752C78.1994 1.04628 78.4988 1.43038 78.7044 1.86544C78.91 2.3005 79.0166 2.77571 79.0166 3.25689C79.0129 3.53083 78.9742 3.80384 78.9013 4.06856L89.2011 12.0911C90.3253 11.1865 91.6688 10.5952 93.0953 10.3774V6.62162C92.599 6.3894 92.1789 6.02109 91.8837 5.55951C91.5885 5.09793 91.4303 4.56204 91.4277 4.01414V3.92744C91.4279 3.16046 91.7328 2.42499 92.2752 1.88274C92.8176 1.3405 93.5532 1.03588 94.3202 1.03588H94.4069C95.1737 1.03612 95.909 1.34085 96.4512 1.88307C96.9935 2.42529 97.2982 3.16062 97.2984 3.92744V4.01414C97.2961 4.56211 97.1381 5.09814 96.8429 5.55978C96.5476 6.02142 96.1273 6.38967 95.6308 6.62162ZM92.0207 22.0155C92.7149 22.4799 93.5311 22.728 94.3663 22.7286L94.37 22.7258C95.4897 22.7258 96.5636 22.2811 97.3554 21.4894C98.1473 20.6977 98.5922 19.6239 98.5925 18.5042C98.5923 17.6691 98.3445 16.8527 97.8804 16.1583C97.4164 15.464 96.7569 14.9228 95.9853 14.6032C95.2137 14.2836 94.3647 14.1999 93.5455 14.3628C92.7264 14.5256 91.974 14.9277 91.3833 15.5181C90.7926 16.1085 90.3902 16.8608 90.227 17.6798C90.0638 18.4989 90.1471 19.3479 90.4664 20.1197C90.7857 20.8914 91.3266 21.5511 92.0207 22.0155ZM12.2239 14.3158V5.29066H16.1586V26.8349H12.2239V18.103H3.93473V26.8349H0V5.29066H3.93473V14.3158H12.2239ZM27.7996 22.1734C28.4102 21.5628 28.7533 20.7346 28.7533 19.8711V10.644H32.4722V19.8693C32.4425 21.7012 31.694 23.448 30.3881 24.733C29.0822 26.0181 27.3235 26.7383 25.4914 26.7384C23.6592 26.7386 21.9005 26.0185 20.5944 24.7337C19.2883 23.4488 18.5396 21.7021 18.5097 19.8702V10.6421H22.2415V19.8711C22.2415 20.7346 22.5845 21.5628 23.1951 22.1734C23.8057 22.784 24.6339 23.127 25.4974 23.127C26.3609 23.127 27.189 22.784 27.7996 22.1734ZM59.0312 9.10272C57.6605 9.10272 56.4089 9.70225 56.4089 11.594H56.4043C56.4043 12.9877 57.8095 13.4315 59.5042 13.9667C62.0781 14.7796 65.3197 15.8033 65.3197 20.6865C65.3197 24.4386 62.2252 26.8385 58.3791 26.8385C55.814 26.8385 53.6742 25.7576 51.9392 23.6269L54.6519 20.8055C54.7445 20.9098 54.8346 21.0136 54.9236 21.1161C55.8088 22.1357 56.5829 23.0274 58.5884 23.0274C59.9886 23.0274 61.2107 21.9141 61.2107 20.6551C61.2107 18.909 59.5781 18.3335 57.7102 17.6751C55.2131 16.7948 52.2953 15.7662 52.2953 11.594C52.2953 7.66202 55.2237 5.29066 59.2728 5.29066C61.2992 5.29066 63.7748 6.43161 64.9941 8.08261L62.5499 10.9631C61.5953 9.94298 60.1361 9.10272 59.0312 9.10272ZM108.731 20.977C108.731 22.4389 109.357 23.3936 111.563 23.3936V23.3899C111.98 23.3899 112.46 23.3604 112.875 23.3318L111.953 26.7306C111.46 26.8194 110.961 26.8595 110.46 26.8505C107.271 26.8505 104.946 25.1516 104.946 21.7813V8.60558L108.731 6.90662V11.2324H112.158V14.5086H108.731V20.977ZM38.5744 12.5117C39.8223 11.2868 41.1118 10.751 42.9611 10.751V10.7528C47.1356 10.7528 50.7254 14.243 50.7254 18.8049C50.7254 23.424 46.8248 26.8542 42.3902 26.8542C38.3936 26.8542 34.8361 23.484 34.8361 18.5632V5.41979H38.5744V12.5117ZM41.3145 22.7701C41.8292 22.9836 42.3809 23.0936 42.938 23.0938H42.9371C44.0624 23.0944 45.1418 22.648 45.9379 21.8528C46.734 21.0575 47.1816 19.9786 47.1822 18.8533C47.1828 17.7281 46.7364 16.6486 45.9412 15.8525C45.1459 15.0564 44.067 14.6088 42.9417 14.6082C42.3846 14.608 41.8328 14.7175 41.3179 14.9305C40.8031 15.1435 40.3352 15.4558 39.9411 15.8496C39.5469 16.2434 39.2342 16.711 39.0208 17.2257C38.8073 17.7403 38.6973 18.292 38.6971 18.8492C38.6968 19.4063 38.8063 19.9581 39.0193 20.473C39.2323 20.9878 39.5447 21.4557 39.9385 21.8498C40.3323 22.244 40.7999 22.5567 41.3145 22.7701ZM75.2193 10.5582C79.6613 10.5582 83.5536 13.981 83.5536 18.6075H83.5518C83.5518 23.1713 79.962 26.6596 75.7884 26.6596C73.9409 26.6596 72.6487 26.1219 71.4035 24.8988V32H67.6653V18.8492C67.6653 13.9284 71.2227 10.5582 75.2193 10.5582ZM79.6909 20.1849C79.9043 19.6702 80.0143 19.1186 80.0146 18.5614V18.5623C80.0152 17.4371 79.5687 16.3576 78.7735 15.5615C77.9783 14.7654 76.8993 14.3178 75.7741 14.3172C74.6488 14.3166 73.5694 14.763 72.7733 15.5583C71.9772 16.3535 71.5296 17.4324 71.529 18.5577C71.5287 19.1149 71.6382 19.6666 71.8512 20.1815C72.0642 20.6963 72.3765 21.1642 72.7703 21.5584C73.1642 21.9525 73.6317 22.2652 74.1464 22.4787C74.6611 22.6921 75.2127 22.8021 75.7699 22.8024C76.3271 22.8026 76.8789 22.6931 77.3937 22.4801C77.9086 22.2671 78.3764 21.9548 78.7706 21.561C79.1647 21.1672 79.4775 20.6996 79.6909 20.1849Z" fill="#080F1A"/>
</svg>
