<svg width="89" height="32" viewBox="0 0 89 32" fill="none" xmlns="http://www.w3.org/2000/svg">
<g clip-path="url(#clip0)">
<path fill-rule="evenodd" clip-rule="evenodd" d="M88.986 6.13999C89.083 6.52099 88.656 6.88699 88.434 7.16699C86.571 9.49998 84.505 12.26 82.023 14.032C82.202 14.96 82.107 16.192 81.783 16.872C82.433 17.7 83.123 18.484 83.525 19.556C82.996 22.3559 81.768 24.5279 79.805 25.9479C77.889 27.3319 75.3 27.8779 72.363 28.5519C66.684 29.8569 57.34 31.1439 53.127 27.7619C48.565 30.4299 39.346 30.7819 35.079 27.6039C32.046 31.4309 20.081 31.0949 21.861 23.5009C19.642 25.1759 16.361 27.4849 13.231 28.7889C9.60104 30.2989 2.72704 30.1289 3.41404 25.0009C3.49704 24.3899 3.75604 24.0449 4.04804 23.5009C2.98604 21.6539 2.31504 20.372 1.67304 18.766C1.05804 17.226 0.120039 15.473 0.0100389 13.322C-0.219961 8.74599 3.35804 5.845 6.90004 4.482C8.70704 3.787 10.175 2.78001 11.965 2.27501C14.64 1.51501 16.933 2.982 17.11 5.431C20.22 4.511 24.007 3.496 28.114 4.09C31.384 1.55501 37.77 3.121 41.967 4.325C42.916 4.598 44.193 5.303 44.896 5.273C45.491 5.249 46.566 4.444 47.19 4.168C50.135 2.866 53.985 1.48001 58.194 2.19501C58.991 2.32901 59.72 2.75001 60.568 2.825C61.144 2.878 61.848 2.69801 62.468 2.66901C72.305 2.19001 80.495 4.822 88.987 6.13999H88.986ZM61.44 5.826C60.435 5.946 59.722 7.04199 59.065 7.40399C59.113 7.39899 59.158 7.39099 59.143 7.32399C59.263 6.78599 59.493 6.35699 59.539 5.747C54.271 3.897 49.144 6.60099 45.371 8.66599C42.353 10.316 39.661 12.256 37.771 14.189C38.454 13.029 39.179 11.881 39.988 10.797C40.808 9.69598 41.721 8.69999 42.443 7.71999C40.865 7.30799 39.283 6.87299 37.691 6.53499C35.429 6.05499 32.283 5.26 30.409 6.29899C29.867 6.59899 29.423 7.33799 28.905 7.40399C28.476 7.45899 27.77 7.14699 27.242 7.08899C25.308 6.87399 23.528 7.05299 21.78 7.40399C20.143 7.73099 16.682 8.31099 16.238 9.84898C15.954 10.837 16.588 11.794 16.476 12.771C16.368 13.731 15.442 15.003 14.972 15.769C14.397 16.709 13.812 17.541 12.834 17.978C12.242 15.038 12.886 12.423 13.389 9.92998C13.699 8.39299 14.324 6.81999 13.786 5.273C12.276 5.064 11.005 6.25499 9.51004 6.84999C6.70204 7.96999 3.57504 8.99099 3.17804 12.217C2.95404 14.034 3.63904 15.189 4.12804 16.479C5.09432 19.06 6.39906 21.5014 8.00804 23.7389C7.58804 24.5069 6.60104 24.7069 6.50204 25.7889C6.94904 26.4189 7.87904 26.5029 8.79804 26.4999C11.454 26.4939 13.632 25.1619 15.605 24.0539C19.901 21.6439 22.787 17.935 25.818 14.427C26.35 13.81 26.788 13.067 27.481 12.691C28.161 15.808 26.838 17.475 25.896 20.0289C25.533 21.0129 24.388 24.0929 24.946 25.5519C25.558 27.1569 30.769 27.2269 32.15 26.1859C32.846 25.6609 33.123 24.4759 33.497 23.7389C33.974 22.7909 34.387 21.9729 34.763 21.1349C34.784 24.5919 37.36 25.6069 40.145 26.3429C46.065 27.9029 52.035 25.1159 55.265 23.1879C54.861 25.7489 55.859 26.0059 57.878 26.4229C63.098 27.4969 68.355 26.2579 72.601 25.2379C76.494 24.3039 79.624 23.6439 80.201 19.792C79.578 19.255 78.021 19.322 76.956 19.478C73.816 19.936 70.776 21.5179 66.586 21.2129C65.821 21.1579 64.17 20.8919 64.051 20.4249C63.867 19.697 65.175 19.187 66.271 19.005C69.411 18.475 73.951 19.01 76.48 18.055C77.694 17.599 79.159 16.281 79.012 14.821C78.916 13.835 77.625 13.319 76.4 13.244C72.936 13.028 70.46 15.044 66.825 14.348C67.279 13.776 67.361 12.833 67.931 12.376C70.59 12.32 73.173 12.846 75.689 12.691C79.187 12.473 81.159 11.004 82.814 9.06099C82.991 8.85099 83.435 8.62599 83.289 8.27299C77.213 7.35099 68.93 4.91 61.439 5.826H61.44ZM49.407 11.9C49.017 13.67 48.202 15.696 47.745 17.66C50.261 17.696 52.915 17.184 55.502 17.029C55.852 16.563 56.024 15.919 56.215 15.293C56.734 16.025 57.099 17.395 56.611 18.449C52.682 18.394 49.858 21.6019 46.004 21.6049C44.278 21.6069 42.811 20.6179 43.628 18.685C44.782 15.96 47.644 14.056 49.407 11.9ZM58.59 8.97999C59.33 9.82098 60.95 9.78498 61.914 10.402C60.613 10.735 58.975 10.733 57.797 11.189C58.075 10.465 58.324 9.71498 58.59 8.98099V8.97999Z" fill="#080F1A"/>
</g>
<defs>
<clipPath id="clip0">
<rect width="89" height="32" fill="white"/>
</clipPath>
</defs>
</svg>
